<svg id="8299ef4c-98ae-49d9-be08-44c8847719c0" data-name="Layer 1" xmlns="http://www.w3.org/2000/svg" viewBox="0 0 475.64 98.95"><defs><style>.\31 f84c484-2481-4462-bb5e-69ca62c9aa77,.\32 c2cc8bc-1150-495c-977d-a60e407f5528{fill:#2c3e50;}.\35 8427b80-7898-42eb-bab6-439cf2b85b9b{fill:#f1c40f;}.\32 c2cc8bc-1150-495c-977d-a60e407f5528{font-size:21.76px;font-family:EurostileLTStd, Eurostile LT Std;letter-spacing:1.11em;}.\37 3744c9a-1255-4c22-8ab0-3b4ad9ae7dab{letter-spacing:1.05em;}</style></defs><title>Artboard 6</title><path class="1f84c484-2481-4462-bb5e-69ca62c9aa77" d="M1.75,33.53,58.81,6.92a39.77,39.77,0,0,1,32-.71A8.67,8.67,0,0,0,81.62,0L7.76,7.81A8.67,8.67,0,0,0,0,17.33Z"/><path class="1f84c484-2481-4462-bb5e-69ca62c9aa77" d="M19.44,57.36,41.52,47.06,54.14,74.14,83.72,60.35A19.07,19.07,0,0,0,67.61,25.78L38,39.57,4,55.41,7.81,91.19a8.67,8.67,0,0,0,9.53,7.72l20.48-2.15Z"/><path class="1f84c484-2481-4462-bb5e-69ca62c9aa77" d="M98.3,75.88a39.93,39.93,0,0,1-5.79,3.32L59.83,94.44l31.36-3.29a8.67,8.67,0,0,0,7.72-9.53Z"/><path class="58427b80-7898-42eb-bab6-439cf2b85b9b" d="M120.52,15.67h21.74c12,0,17.27,4.46,17.27,16.65v9c0,11.73-3.78,17.27-15.73,17.27H120.52ZM132,48.62h10c4.23,0,5.78-2.8,5.78-7.32v-9c0-5.55-1.77-6.69-5.78-6.69H132Z"/><path class="58427b80-7898-42eb-bab6-439cf2b85b9b" d="M189,43.53v15H177.6v-15L162.38,15.67h13.1l7.66,16.53h.4l7.89-16.53h13.27Z"/><path class="58427b80-7898-42eb-bab6-439cf2b85b9b" d="M220.15,58.57H208.71V15.67H228l12.3,32.95h.46l-.69-32.95h11.44v42.9H232L219.92,25.63h-.46Z"/><path class="58427b80-7898-42eb-bab6-439cf2b85b9b" d="M269.79,51.2l-2.12,7.38h-11.9l12.87-42.9H286l13,42.9H287.41l-2.23-7.38Zm7.78-26.94h-.11l-5.2,18.59h10.64Z"/><path class="58427b80-7898-42eb-bab6-439cf2b85b9b" d="M322.87,32.49c12.7.92,15.84,2.52,15.84,12.35,0,7.09.29,14.07-18.59,14.07-10.92,0-18.19-.23-18.19-14.3h11c0,4.46,1.6,4.92,7.21,4.92,5.38,0,7.15-.34,7.15-3.95s-.63-3.66-6-4l-2.52-.17c-10.58-.74-16.76-.69-16.76-13s6.92-13.1,18.13-13.1c9.38,0,17.39.17,17.39,12v1.77h-11c0-4.4-1.83-4.4-6.41-4.4-6.18,0-6.69,1.26-6.69,3.66,0,3.43,1.66,3.55,4.69,3.77Z"/><path class="58427b80-7898-42eb-bab6-439cf2b85b9b" d="M357.3,32.89h18.3v8H357.3v8.35H377.2v9.38H345.86V15.67H376.8v9.38H357.3Z"/><path class="58427b80-7898-42eb-bab6-439cf2b85b9b" d="M397.34,58.57H385.9V15.67h19.33l12.3,32.95H418l-.69-32.95h11.44v42.9h-19.5L397.11,25.63h-.46Z"/><path class="58427b80-7898-42eb-bab6-439cf2b85b9b" d="M436.63,15.67h21.74c12,0,17.27,4.46,17.27,16.65v9c0,11.73-3.78,17.27-15.73,17.27H436.63Zm11.44,32.95h10c4.23,0,5.78-2.8,5.78-7.32v-9c0-5.55-1.77-6.69-5.78-6.69h-10Z"/><text class="2c2cc8bc-1150-495c-977d-a60e407f5528" transform="translate(120.52 86.11)">SIGN<tspan class="73744c9a-1255-4c22-8ab0-3b4ad9ae7dab" x="147.42" y="0">A</tspan><tspan x="185.17" y="0">TURES</tspan></text></svg>